<svg xmlns="http://www.w3.org/2000/svg" xml:space="preserve" viewBox="0 0 110 135"><path d="M59.3 106.9c21.7 0 39.4-17.7 39.4-39.4-.1-21.7-17.8-39.4-39.5-39.4-15.4 0-29.4 8.9-35.8 22.8l-1.2 2.8-5.7-12.9c-.3-.6-.8-1.1-1.5-1.4s-1.4-.2-2 .1c-1.3.6-1.9 2.2-1.3 3.5l8.9 19.9.2.2v.1h.1l.1.2s0 .1.1.1l.1.1c.1.1.2.2.2.3.1 0 .1.1.2.1l.2.2c.1 0 .1.1.2.1s.2.1.2.1h1.2l.1-.1.3-.1 19.5-6.4c.7-.3 1.2-.7 1.6-1.3.5-.8.4-1.2.2-1.8l-.1-.1c-.4-1.4-1.9-2.1-3.3-1.6l-15.2 4.9 1.1-2.7c5.1-13.2 17.7-21.7 32-21.7 8.9 0 17.3 3.5 23.7 9.9 6.5 6.4 10.1 15 10.1 24.1 0 18.8-15.3 34.1-34.1 34.1-12.9 0-24.5-7.1-30.3-18.5-.4-.6-.9-1-1.6-1.3-.2-.1-.5-.1-.8-.1-.4 0-.8.1-1.3.3-.4.3-1.1.8-1.3 1.5-.2.8-.2 1.5.2 2 6.8 13.2 20.2 21.4 35.1 21.4" style="fill:currentColor"/></svg>