<svg xmlns="http://www.w3.org/2000/svg" xml:space="preserve" viewBox="0 0 110 135"><path d="M37.8 50.3 52 36v50.8c0 1.7 1.3 3 3 3s3-1.3 3-3V36l14 14.2c1.2 1.2 3 1.2 4.2 0s1.2-3 0-4.2L56.9 26.7c-.1-.1-.3-.3-.7-.5-.1-.1-.2-.1-.3-.2-.6-.3-1.5-.3-2.2 0h-.2L33.6 46c-1.2 1.2-1.2 3 0 4.2 1.2 1.3 3 1.3 4.2.1" style="fill:currentColor"/><path d="M93.7 83.8c-1.7 0-3 1.3-3 3v9.7c0 3.6-3.1 6.7-6.7 6.7H26c-3.6 0-6.7-3.1-6.7-6.7v-9.7c0-1.7-1.3-3-3-3s-3 1.3-3 3v9.7c0 7 5.7 12.7 12.7 12.7h58c7 0 12.7-5.7 12.7-12.7v-9.7c0-1.7-1.3-3-3-3" style="fill:currentColor"/></svg>