<svg xmlns="http://www.w3.org/2000/svg" xml:space="preserve" viewBox="0 0 110 110"><path d="M56.1 83.8c-7.7 0-14.9-3-20.3-8.4s-8.4-12.6-8.4-20.3c0-14.6 10.9-26.9 25.4-28.5l3.7-.4-1.9 3.2c-2.3 3.8-3.5 8.3-3.5 12.7 0 13.8 11.3 25.1 25.1 25.1 1 0 2-.1 2.9-.2l3.7-.4-1.9 3.2C78.4 74 74.8 77.6 70.6 80c-4.5 2.5-9.5 3.8-14.5 3.8m-6.5-52.9C38.8 33.7 31 43.6 31 55.1c0 13.8 11.3 25.1 25.1 25.1 7.6 0 14.9-3.5 19.6-9.4-7.5-.1-14.5-3.1-19.8-8.4-5.4-5.4-8.4-12.6-8.4-20.3-.1-3.9.6-7.7 2.1-11.2" style="fill:currentColor"/></svg>