<svg xmlns="http://www.w3.org/2000/svg" xml:space="preserve" viewBox="0 0 110 110"><path d="M29.1 55.4c0-1.2-1-2.2-2.2-2.2h-8.4c-1.2 0-2.2 1-2.2 2.2s1 2.2 2.2 2.2h8.4c.7 0 1.3-.3 1.7-.7s.6-1 .5-1.5M33.7 36.8c.4.4 1 .6 1.6.6.5 0 1.1-.2 1.7-.6.9-.9.9-2.3 0-3.2l-5.9-5.9c-.9-.9-2.3-.9-3.2 0-.4.4-.7 1-.7 1.6s.2 1.2.7 1.6zM33.6 74l-5.9 5.9c-.9.9-.9 2.3 0 3.2.4.4 1 .6 1.6.6.7 0 1.2-.3 1.7-.6l5.9-5.9c.4-.4.7-1 .7-1.6s-.2-1.2-.7-1.6c-.9-.9-2.4-.9-3.3 0M75.7 37.4c.7 0 1.2-.3 1.7-.6l5.9-5.9c.9-.9.9-2.3 0-3.2s-2.3-.9-3.2 0l-5.9 5.9c-.4.4-.7 1-.7 1.6s.2 1.2.7 1.6c.3.3 1 .6 1.5.6M55.5 29c1.3 0 2.2-.9 2.2-2.2v-8.4c0-1.2-1-2.2-2.2-2.2s-2.2 1-2.2 2.2v8.4c0 1.2 1 2.2 2.2 2.2M77.5 74c-.9-.9-2.3-.9-3.2 0s-.9 2.3 0 3.2l5.9 5.9c.4.4 1 .6 1.6.6s1.1-.3 1.6-.6l.1-.1c.9-.9.9-2.3 0-3.2zM92.5 53.2h-8.4c-1.2 0-2.2 1-2.2 2.2s1 2.2 2.2 2.2h8.4c1.2 0 2.2-1 2.2-2.2s-1-2.2-2.2-2.2M55.5 35.4c-11 0-20 9-20 20s9 20 20 20 20-9 20-20-9-20-20-20m0 35.5c-8.5 0-15.5-7-15.5-15.5s7-15.5 15.5-15.5S71 46.9 71 55.4s-7 15.5-15.5 15.5M55.5 81.8c-1.2 0-2.2 1-2.2 2.2v8.4c0 1.2 1 2.2 2.2 2.2s2.2-1 2.2-2.2V84c0-1.2-1-2.2-2.2-2.2" style="fill:currentColor"/></svg>