<svg xmlns="http://www.w3.org/2000/svg" xml:space="preserve" viewBox="0 0 110 110"><path d="M31.6 80.9c-2.2 0-3.9-.4-5.1-1.1-1.3-.7-2.2-1.8-2.8-3.2s-1-3.1-1.1-5c-.2-2-.2-4.2-.2-6.8 0-2.1-.3-3.7-.8-4.7s-1.3-1.9-2.3-2.6l-.3-.2c-.9-.6-1.3-1.3-1.3-2v-.7c0-.8.4-1.5 1.3-2l.3-.2c1-.7 1.8-1.6 2.3-2.6s.7-2.6.7-4.6c0-2.5.1-4.8.2-6.8.2-2 .5-3.6 1.1-5s1.5-2.4 2.8-3.1 3-1.1 5.1-1.1h.3q.6 0 .9.3t.3.9v.8q0 .6-.3.9c-.3.3-.5.3-.9.3h-.3c-1.9 0-3.2.5-4.1 1.4q-1.2 1.5-1.5 4.5c-.2 2-.3 4.7-.3 8 0 2.1-.3 3.9-1 5.3-.6 1.4-1.7 2.5-3.1 3.4 1 .6 1.7 1.2 2.4 2 .6.8 1.1 1.8 1.4 2.9s.4 2.4.4 3.8c0 3.3.1 6 .3 8q.3 3.15 1.5 4.5c1.2 1.35 2.2 1.4 4.1 1.5h.3q.6 0 .9.3c.3.3.3.5.3.9v.8q0 .6-.3.9t-.9.3zm22.3-43.5q-.6 0-.9-.3t-.3-.9v-2.1q0-.6.3-.9c.2-.2.5-.4.9-.4H56c.4 0 .7.1.9.4.2.2.4.5.4.9v2.1c0 .4-.1.7-.4.9q-.3.3-.9.3zm.6 34.7q-.6 0-.9-.3c-.3-.3-.3-.5-.3-.9V44.5q0-.6.3-.9t.9-.3h.9q.6 0 .9.3t.3.9v26.3q0 .6-.3.9t-.9.3h-.9zm23.9-43c2.2 0 3.9.4 5.1 1.1 1.3.7 2.2 1.8 2.8 3.2s1 3.1 1.1 5c.2 2 .2 4.2.2 6.8 0 2.1.3 3.7.8 4.7s1.3 1.9 2.3 2.6l.3.2c.9.6 1.3 1.3 1.3 2v.7c0 .8-.4 1.5-1.3 2l-.3.2c-1 .7-1.8 1.6-2.3 2.6s-.7 2.6-.7 4.6c0 2.5-.1 4.8-.2 6.8s-.5 3.6-1.1 5-1.5 2.4-2.8 3.1-3 1.1-5.1 1.1h-.3q-.6 0-.9-.3t-.3-.9v-.8q0-.6.3-.9c.3-.3.5-.3.9-.3h.3c1.9 0 3.3-.5 4.1-1.5s1.3-2.4 1.5-4.5c.2-2 .3-4.7.3-8 0-2.2.3-4 1-5.3.7-1.4 1.7-2.5 3.2-3.3-1-.6-1.7-1.3-2.4-2.1-.6-.8-1.1-1.7-1.4-2.8s-.4-2.4-.4-3.8q0-4.95-.3-8.1c-.2-2-.7-3.6-1.5-4.5-.8-1-2.2-1.4-4.1-1.4h-.3q-.6 0-.9-.3c-.3-.3-.3-.5-.3-.9v-.8q0-.6.3-.9t.9-.3z" style="fill:currentColor"/></svg>